<mxfile host="app.diagrams.net" modified="2021-11-07T12:43:56.416Z" agent="5.0 (Macintosh; Intel Mac OS X 10_15_7) AppleWebKit/537.36 (KHTML, like Gecko) Chrome/95.0.4638.69 Safari/537.36" etag="8UyHDHkY_HlUZAmBpTnA" version="15.6.8" type="github">
  <diagram id="inf0msOMzO1k1MvchSSj" name="Page-1">
    <mxGraphModel dx="1426" dy="768" grid="1" gridSize="10" guides="1" tooltips="1" connect="1" arrows="1" fold="1" page="1" pageScale="1" pageWidth="1654" pageHeight="1169" math="0" shadow="0">
      <root>
        <mxCell id="0" />
        <mxCell id="1" parent="0" />
        <mxCell id="XJIBHl0FXU8qW76EnuhN-33" style="edgeStyle=orthogonalEdgeStyle;rounded=0;orthogonalLoop=1;jettySize=auto;html=1;entryX=0.5;entryY=0;entryDx=0;entryDy=0;fontSize=18;" edge="1" parent="1" source="XJIBHl0FXU8qW76EnuhN-31">
          <mxGeometry relative="1" as="geometry">
            <mxPoint x="300" y="525" as="targetPoint" />
          </mxGeometry>
        </mxCell>
        <mxCell id="XJIBHl0FXU8qW76EnuhN-31" value="" style="rounded=0;whiteSpace=wrap;html=1;fontSize=18;align=left;verticalAlign=top;" vertex="1" parent="1">
          <mxGeometry x="60" y="200" width="480" height="270" as="geometry" />
        </mxCell>
        <mxCell id="XJIBHl0FXU8qW76EnuhN-2" value="TABLE Movies" style="swimlane;fontStyle=0;childLayout=stackLayout;horizontal=1;startSize=30;horizontalStack=0;resizeParent=1;resizeParentMax=0;resizeLast=0;collapsible=1;marginBottom=0;fontSize=16;" vertex="1" parent="1">
          <mxGeometry x="930" y="160" width="250" height="240" as="geometry" />
        </mxCell>
        <mxCell id="XJIBHl0FXU8qW76EnuhN-3" value="INT id" style="text;strokeColor=none;fillColor=none;align=left;verticalAlign=middle;spacingLeft=4;spacingRight=4;overflow=hidden;points=[[0,0.5],[1,0.5]];portConstraint=eastwest;rotatable=0;fontSize=16;" vertex="1" parent="XJIBHl0FXU8qW76EnuhN-2">
          <mxGeometry y="30" width="250" height="30" as="geometry" />
        </mxCell>
        <mxCell id="XJIBHl0FXU8qW76EnuhN-10" value="VARCHAR(255) name" style="text;strokeColor=none;fillColor=none;align=left;verticalAlign=middle;spacingLeft=4;spacingRight=4;overflow=hidden;points=[[0,0.5],[1,0.5]];portConstraint=eastwest;rotatable=0;fontSize=16;" vertex="1" parent="XJIBHl0FXU8qW76EnuhN-2">
          <mxGeometry y="60" width="250" height="30" as="geometry" />
        </mxCell>
        <mxCell id="XJIBHl0FXU8qW76EnuhN-11" value="VARCHAR(255) location" style="text;strokeColor=none;fillColor=none;align=left;verticalAlign=middle;spacingLeft=4;spacingRight=4;overflow=hidden;points=[[0,0.5],[1,0.5]];portConstraint=eastwest;rotatable=0;fontSize=16;" vertex="1" parent="XJIBHl0FXU8qW76EnuhN-2">
          <mxGeometry y="90" width="250" height="30" as="geometry" />
        </mxCell>
        <mxCell id="XJIBHl0FXU8qW76EnuhN-9" value="DATE date" style="text;strokeColor=none;fillColor=none;align=left;verticalAlign=middle;spacingLeft=4;spacingRight=4;overflow=hidden;points=[[0,0.5],[1,0.5]];portConstraint=eastwest;rotatable=0;fontSize=16;" vertex="1" parent="XJIBHl0FXU8qW76EnuhN-2">
          <mxGeometry y="120" width="250" height="30" as="geometry" />
        </mxCell>
        <mxCell id="XJIBHl0FXU8qW76EnuhN-8" value="TIME time" style="text;strokeColor=none;fillColor=none;align=left;verticalAlign=middle;spacingLeft=4;spacingRight=4;overflow=hidden;points=[[0,0.5],[1,0.5]];portConstraint=eastwest;rotatable=0;fontSize=16;" vertex="1" parent="XJIBHl0FXU8qW76EnuhN-2">
          <mxGeometry y="150" width="250" height="30" as="geometry" />
        </mxCell>
        <mxCell id="XJIBHl0FXU8qW76EnuhN-7" value="INT userID" style="text;strokeColor=none;fillColor=none;align=left;verticalAlign=middle;spacingLeft=4;spacingRight=4;overflow=hidden;points=[[0,0.5],[1,0.5]];portConstraint=eastwest;rotatable=0;fontSize=16;" vertex="1" parent="XJIBHl0FXU8qW76EnuhN-2">
          <mxGeometry y="180" width="250" height="30" as="geometry" />
        </mxCell>
        <mxCell id="XJIBHl0FXU8qW76EnuhN-6" style="text;strokeColor=none;fillColor=none;align=left;verticalAlign=middle;spacingLeft=4;spacingRight=4;overflow=hidden;points=[[0,0.5],[1,0.5]];portConstraint=eastwest;rotatable=0;fontSize=16;" vertex="1" parent="XJIBHl0FXU8qW76EnuhN-2">
          <mxGeometry y="210" width="250" height="30" as="geometry" />
        </mxCell>
        <mxCell id="XJIBHl0FXU8qW76EnuhN-20" style="edgeStyle=orthogonalEdgeStyle;rounded=0;orthogonalLoop=1;jettySize=auto;html=1;entryX=0.5;entryY=0;entryDx=0;entryDy=0;fontSize=16;" edge="1" parent="1" source="XJIBHl0FXU8qW76EnuhN-12" target="XJIBHl0FXU8qW76EnuhN-18">
          <mxGeometry relative="1" as="geometry" />
        </mxCell>
        <mxCell id="XJIBHl0FXU8qW76EnuhN-21" style="edgeStyle=orthogonalEdgeStyle;rounded=0;orthogonalLoop=1;jettySize=auto;html=1;entryX=0.5;entryY=0;entryDx=0;entryDy=0;fontSize=16;" edge="1" parent="1" source="XJIBHl0FXU8qW76EnuhN-12" target="XJIBHl0FXU8qW76EnuhN-19">
          <mxGeometry relative="1" as="geometry" />
        </mxCell>
        <mxCell id="XJIBHl0FXU8qW76EnuhN-22" style="edgeStyle=orthogonalEdgeStyle;rounded=0;orthogonalLoop=1;jettySize=auto;html=1;entryX=0.5;entryY=0;entryDx=0;entryDy=0;fontSize=16;" edge="1" parent="1" source="XJIBHl0FXU8qW76EnuhN-12" target="XJIBHl0FXU8qW76EnuhN-16">
          <mxGeometry relative="1" as="geometry" />
        </mxCell>
        <mxCell id="XJIBHl0FXU8qW76EnuhN-12" value="Avengers" style="rounded=0;whiteSpace=wrap;html=1;fontSize=16;" vertex="1" parent="1">
          <mxGeometry x="240" y="100" width="120" height="60" as="geometry" />
        </mxCell>
        <mxCell id="XJIBHl0FXU8qW76EnuhN-13" value="Central" style="rounded=0;whiteSpace=wrap;html=1;fontSize=16;" vertex="1" parent="1">
          <mxGeometry x="100" y="310" width="120" height="60" as="geometry" />
        </mxCell>
        <mxCell id="XJIBHl0FXU8qW76EnuhN-14" value="Wan Chai" style="rounded=0;whiteSpace=wrap;html=1;fontSize=16;" vertex="1" parent="1">
          <mxGeometry x="100" y="380" width="120" height="60" as="geometry" />
        </mxCell>
        <mxCell id="XJIBHl0FXU8qW76EnuhN-15" value="Today" style="rounded=0;whiteSpace=wrap;html=1;fontSize=16;" vertex="1" parent="1">
          <mxGeometry x="240" y="310" width="120" height="60" as="geometry" />
        </mxCell>
        <mxCell id="XJIBHl0FXU8qW76EnuhN-16" value="Time" style="rounded=0;whiteSpace=wrap;html=1;fontSize=16;" vertex="1" parent="1">
          <mxGeometry x="380" y="230" width="120" height="60" as="geometry" />
        </mxCell>
        <mxCell id="XJIBHl0FXU8qW76EnuhN-17" value="Future dates" style="rounded=0;whiteSpace=wrap;html=1;fontSize=16;" vertex="1" parent="1">
          <mxGeometry x="240" y="380" width="120" height="60" as="geometry" />
        </mxCell>
        <mxCell id="XJIBHl0FXU8qW76EnuhN-18" value="Locations" style="rounded=0;whiteSpace=wrap;html=1;fontSize=16;" vertex="1" parent="1">
          <mxGeometry x="100" y="230" width="120" height="60" as="geometry" />
        </mxCell>
        <mxCell id="XJIBHl0FXU8qW76EnuhN-19" value="Date" style="rounded=0;whiteSpace=wrap;html=1;fontSize=16;" vertex="1" parent="1">
          <mxGeometry x="240" y="230" width="120" height="60" as="geometry" />
        </mxCell>
        <mxCell id="XJIBHl0FXU8qW76EnuhN-25" style="edgeStyle=orthogonalEdgeStyle;rounded=0;orthogonalLoop=1;jettySize=auto;html=1;entryX=0.5;entryY=0;entryDx=0;entryDy=0;fontSize=16;" edge="1" parent="1" source="XJIBHl0FXU8qW76EnuhN-23" target="XJIBHl0FXU8qW76EnuhN-24">
          <mxGeometry relative="1" as="geometry" />
        </mxCell>
        <mxCell id="XJIBHl0FXU8qW76EnuhN-27" style="edgeStyle=orthogonalEdgeStyle;rounded=0;orthogonalLoop=1;jettySize=auto;html=1;entryX=0.5;entryY=0;entryDx=0;entryDy=0;fontSize=16;" edge="1" parent="1" source="XJIBHl0FXU8qW76EnuhN-23" target="XJIBHl0FXU8qW76EnuhN-26">
          <mxGeometry relative="1" as="geometry" />
        </mxCell>
        <mxCell id="XJIBHl0FXU8qW76EnuhN-23" value="user" style="rounded=0;whiteSpace=wrap;html=1;fontSize=16;" vertex="1" parent="1">
          <mxGeometry x="670" y="100" width="120" height="60" as="geometry" />
        </mxCell>
        <mxCell id="XJIBHl0FXU8qW76EnuhN-24" value="userID" style="rounded=0;whiteSpace=wrap;html=1;fontSize=16;" vertex="1" parent="1">
          <mxGeometry x="600" y="230" width="120" height="60" as="geometry" />
        </mxCell>
        <mxCell id="XJIBHl0FXU8qW76EnuhN-26" value="orderID" style="rounded=0;whiteSpace=wrap;html=1;fontSize=16;" vertex="1" parent="1">
          <mxGeometry x="730" y="230" width="120" height="60" as="geometry" />
        </mxCell>
        <mxCell id="XJIBHl0FXU8qW76EnuhN-30" value="Questions:&lt;br&gt;1. Do we &quot;id&quot; all big categories?&lt;br&gt;2. Do we map screening details to one ID, or use PathVariable?" style="text;html=1;strokeColor=none;fillColor=none;align=left;verticalAlign=top;whiteSpace=wrap;rounded=0;fontSize=18;" vertex="1" parent="1">
          <mxGeometry x="570" y="420" width="450" height="170" as="geometry" />
        </mxCell>
        <mxCell id="XJIBHl0FXU8qW76EnuhN-34" value="screeningId" style="rounded=0;whiteSpace=wrap;html=1;fontSize=18;align=center;verticalAlign=middle;" vertex="1" parent="1">
          <mxGeometry x="240" y="530" width="120" height="60" as="geometry" />
        </mxCell>
        <mxCell id="XJIBHl0FXU8qW76EnuhN-35" value="TABLE Orders" style="swimlane;fontStyle=0;childLayout=stackLayout;horizontal=1;startSize=30;horizontalStack=0;resizeParent=1;resizeParentMax=0;resizeLast=0;collapsible=1;marginBottom=0;fontSize=16;align=center;verticalAlign=middle;" vertex="1" parent="1">
          <mxGeometry x="1210" y="160" width="190" height="90" as="geometry" />
        </mxCell>
        <mxCell id="XJIBHl0FXU8qW76EnuhN-36" value="INT id" style="text;strokeColor=none;fillColor=none;align=left;verticalAlign=middle;spacingLeft=4;spacingRight=4;overflow=hidden;points=[[0,0.5],[1,0.5]];portConstraint=eastwest;rotatable=0;fontSize=16;" vertex="1" parent="XJIBHl0FXU8qW76EnuhN-35">
          <mxGeometry y="30" width="190" height="30" as="geometry" />
        </mxCell>
        <mxCell id="XJIBHl0FXU8qW76EnuhN-37" value="INT userId" style="text;strokeColor=none;fillColor=none;align=left;verticalAlign=middle;spacingLeft=4;spacingRight=4;overflow=hidden;points=[[0,0.5],[1,0.5]];portConstraint=eastwest;rotatable=0;fontSize=16;" vertex="1" parent="XJIBHl0FXU8qW76EnuhN-35">
          <mxGeometry y="60" width="190" height="30" as="geometry" />
        </mxCell>
      </root>
    </mxGraphModel>
  </diagram>
</mxfile>
